<?xml version="1.0" standalone="no"?><!DOCTYPE svg PUBLIC "-//W3C//DTD SVG 1.1//EN" "http://www.w3.org/Graphics/SVG/1.1/DTD/svg11.dtd"><svg t="1781692953795" class="icon" viewBox="0 0 1024 1024" version="1.1" xmlns="http://www.w3.org/2000/svg" p-id="7679" xmlns:xlink="http://www.w3.org/1999/xlink" width="200" height="200"><path d="M854.92 615.2h59.96v59.95h-59.96z" fill="#333333" p-id="7680"></path><path d="M854.92 555.25h59.96v59.96h-59.96zM854.92 495.3h59.96v59.95h-59.96zM854.92 375.4h59.96v59.95h-59.96zM854.92 315.44h59.96v59.96h-59.96z" fill="#333333" p-id="7681"></path><path d="M854.92 255.5h59.96v59.95h-59.96zM794.96 735.1h59.96v59.96h-59.96zM794.96 615.2h59.96v59.95h-59.96z" fill="#333333" p-id="7682"></path><path d="M794.96 555.25h59.96v59.96h-59.96zM794.96 495.3h59.96v59.95h-59.96z" fill="#E5E5E5" p-id="7683"></path><path d="M794.96 435.34h59.96v59.96h-59.96z" fill="#333333" p-id="7684"></path><path d="M794.96 375.4h59.96v59.95h-59.96zM794.96 315.44h59.96v59.96h-59.96z" fill="#E5E5E5" p-id="7685"></path><path d="M794.96 255.5h59.96v59.95h-59.96z" fill="#E5E5E5" p-id="7686"></path><path d="M794.96 195.54h59.96v59.96h-59.96zM735.02 795.06h59.95v59.95h-59.95z" fill="#333333" p-id="7687"></path><path d="M735.02 735.1h59.95v59.96h-59.95z" fill="#F9F9F9" p-id="7688"></path><path d="M735.02 675.15h59.95v59.96h-59.95z" fill="#333333" p-id="7689"></path><path d="M735.02 615.2h59.95v59.95h-59.95z" fill="#E5E5E5" p-id="7690"></path><path d="M735.02 555.25h59.95v59.96h-59.95zM735.02 495.3h59.95v59.95h-59.95zM735.02 435.34h59.95v59.96h-59.95z" fill="#E5E5E5" p-id="7691"></path><path d="M735.02 375.4h59.95v59.95h-59.95zM735.02 315.44h59.95v59.96h-59.95z" fill="#E5E5E5" p-id="7692"></path><path d="M735.02 255.5h59.95v59.95h-59.95z" fill="#E5E5E5" p-id="7693"></path><path d="M735.02 195.54h59.95v59.96h-59.95zM675.06 735.1h59.96v59.96h-59.96z" fill="#333333" p-id="7694"></path><path d="M675.06 675.15h59.96v59.96h-59.96z" fill="#E5E5E5" p-id="7695"></path><path d="M675.06 615.2h59.96v59.95h-59.96z" fill="#333333" p-id="7696"></path><path d="M675.06 555.25h59.96v59.96h-59.96zM675.06 495.3h59.96v59.95h-59.96zM675.06 435.34h59.96v59.96h-59.96z" fill="#F9F9F9" p-id="7697"></path><path d="M675.06 375.4h59.96v59.95h-59.96z" fill="#F9F9F9" p-id="7698"></path><path d="M675.06 315.44h59.96v59.96h-59.96z" fill="#E5E5E5" p-id="7699"></path><path d="M675.06 255.5h59.96v59.95h-59.96zM615.12 795.06h59.95v59.95h-59.95z" fill="#333333" p-id="7700"></path><path d="M615.12 735.1h59.95v59.96h-59.95z" fill="#333333" p-id="7701"></path><path d="M615.12 675.15h59.95v59.96h-59.95z" fill="#E5E5E5" p-id="7702"></path><path d="M615.12 615.2h59.95v59.95h-59.95z" fill="#F9F9F9" p-id="7703"></path><path d="M615.12 555.25h59.95v59.96h-59.95zM615.12 495.3h59.95v59.95h-59.95zM615.12 435.34h59.95v59.96h-59.95z" fill="#F9F9F9" p-id="7704"></path><path d="M615.12 375.4h59.95v59.95h-59.95z" fill="#F9F9F9" p-id="7705"></path><path d="M615.12 315.44h59.95v59.96h-59.95z" fill="#E5E5E5" p-id="7706"></path><path d="M615.12 255.5h59.95v59.95h-59.95zM555.16 795.06h59.96v59.95h-59.96z" fill="#333333" p-id="7707"></path><path d="M555.16 735.1h59.96v59.96h-59.96z" fill="#F9F9F9" p-id="7708"></path><path d="M555.16 675.15h59.96v59.96h-59.96z" fill="#F9F9F9" p-id="7709"></path><path d="M555.16 615.2h59.96v59.95h-59.96z" fill="#F9F9F9" p-id="7710"></path><path d="M555.16 555.25h59.96v59.96h-59.96zM555.16 495.3h59.96v59.95h-59.96zM555.16 435.34h59.96v59.96h-59.96z" fill="#F9F9F9" p-id="7711"></path><path d="M555.16 375.4h59.96v59.95h-59.96z" fill="#F9F9F9" p-id="7712"></path><path d="M555.16 315.44h59.96v59.96h-59.96zM495.21 795.06h59.95v59.95h-59.95z" fill="#333333" p-id="7713"></path><path d="M495.21 735.1h59.95v59.96h-59.95z" fill="#F9F9F9" p-id="7714"></path><path d="M495.21 675.15h59.95v59.96h-59.95z" fill="#F9F9F9" p-id="7715"></path><path d="M495.21 615.2h59.95v59.95h-59.95z" fill="#F9F9F9" p-id="7716"></path><path d="M495.21 555.25h59.95v59.96h-59.95zM495.21 495.3h59.95v59.95h-59.95zM495.21 435.34h59.95v59.96h-59.95z" fill="#F9F9F9" p-id="7717"></path><path d="M495.21 375.4h59.95v59.95h-59.95z" fill="#333333" p-id="7718"></path><path d="M495.21 315.44h59.95v59.96h-59.95z" fill="#FFFFFF" p-id="7719"></path><path d="M435.26 795.06h59.96v59.95h-59.96z" fill="#333333" p-id="7720"></path><path d="M435.26 735.1h59.96v59.96h-59.96z" fill="#333333" p-id="7721"></path><path d="M435.26 675.15h59.96v59.96h-59.96z" fill="#F9F9F9" p-id="7722"></path><path d="M435.26 615.2h59.96v59.95h-59.96z" fill="#F9F9F9" p-id="7723"></path><path d="M435.26 555.25h59.96v59.96h-59.96zM435.26 495.3h59.96v59.95h-59.96zM435.26 435.34h59.96v59.96h-59.96z" fill="#F9F9F9" p-id="7724"></path><path d="M435.26 375.4h59.96v59.95h-59.96z" fill="#E5E5E5" p-id="7725"></path><path d="M435.26 315.44h59.96v59.96h-59.96zM375.31 735.1h59.95v59.96h-59.95z" fill="#333333" p-id="7726"></path><path d="M375.31 675.15h59.95v59.96h-59.95z" fill="#F9F9F9" p-id="7727"></path><path d="M375.31 615.2h59.95v59.95h-59.95z" fill="#F9F9F9" p-id="7728"></path><path d="M375.31 555.25h59.95v59.96h-59.95zM375.31 495.3h59.95v59.95h-59.95zM375.31 435.34h59.95v59.96h-59.95z" fill="#F9F9F9" p-id="7729"></path><path d="M375.31 375.4h59.95v59.95h-59.95z" fill="#FFFFFF" p-id="7730"></path><path d="M375.31 255.5h59.95v59.95h-59.95zM315.36 675.15h59.96v59.96h-59.96z" fill="#333333" p-id="7731"></path><path d="M315.36 615.2h59.96v59.95h-59.96z" fill="#333333" p-id="7732"></path><path d="M315.36 555.25h59.96v59.96h-59.96z" fill="#333333" p-id="7733"></path><path d="M315.36 495.3h59.96v59.95h-59.96zM315.36 435.34h59.96v59.96h-59.96z" fill="#FFFFFF" p-id="7734"></path><path d="M315.36 375.4h59.96v59.95h-59.96z" fill="#333333" p-id="7735"></path><path d="M315.36 315.44h59.96v59.96h-59.96z" fill="#FFFFFF" p-id="7736"></path><path d="M315.36 255.5h59.96v59.95h-59.96zM255.41 555.25h59.95v59.96h-59.95zM255.41 495.3h59.95v59.95h-59.95z" fill="#333333" p-id="7737"></path><path d="M255.41 435.34h59.95v59.96h-59.95z" fill="#FFFFFF" p-id="7738"></path><path d="M255.41 375.4h59.95v59.95h-59.95zM255.41 315.44h59.95v59.96h-59.95z" fill="#FFFFFF" p-id="7739"></path><path d="M255.41 255.5h59.95v59.95h-59.95zM195.46 495.3h59.96v59.95h-59.96zM195.46 435.34h59.96v59.96h-59.96z" fill="#333333" p-id="7740"></path><path d="M195.46 375.4h59.96v59.95h-59.96zM195.46 315.44h59.96v59.96h-59.96z" fill="#333333" p-id="7741"></path><path d="M135.51 435.34h59.95v59.96h-59.95z" fill="#FF8A61" p-id="7742"></path><path d="M135.51 375.4h59.95v59.95h-59.95z" fill="#FF5F5F" p-id="7743"></path><path d="M75.55 375.4h59.96v59.95H75.55z" fill="#FF8080" p-id="7744"></path></svg>